<svg xmlns="http://www.w3.org/2000/svg" width="174.847" height="58" viewBox="0 0 174.847 58"><defs><style>.a{fill:#fff;}</style></defs><g transform="translate(-157.93 -386.538)"><g transform="translate(157.93 393.766)"><g transform="translate(0 0)"><rect class="a" width="10.913" height="10.913" transform="translate(0 0.107)"/><rect class="a" width="10.913" height="10.913" transform="translate(14.396 0.107)"/><path class="a" d="M270.59,414.927v10.808h10.915V414.927Z" transform="translate(-241.797 -414.82)"/><rect class="a" width="10.913" height="10.913" transform="translate(0 28.573)"/><path class="a" d="M157.93,470.97v10.913h14.4v14.225h10.913V470.97Z" transform="translate(-157.93 -456.62)"/><rect class="a" width="10.913" height="10.913" transform="translate(28.793 28.573)"/><rect class="a" width="10.913" height="10.913" transform="translate(28.793 14.35)"/></g></g><g transform="translate(209.516 386.538)"><path class="a" d="M363.374,434.755a.539.539,0,0,1,.56-.57c16.1.5,37.045-15.291,34.681-31.223-.647-4.34-3.744-7.879-7.918-10.013a.534.534,0,0,0-.708.217c-3.279,5.848-9.369,19.352-11.618,28.7a7.285,7.285,0,0,1-9.448,5.216c-.112-.041-.22-.082-.317-.123a.535.535,0,0,1-.3-.639c2.264-8,10.22-26.114,15.414-34.643a.538.538,0,0,0-.419-.815,19.355,19.355,0,0,0-7.074.713c-6.451,1.927-8.373,7.92-4.743,8.718a.54.54,0,0,1,.294.856c-3.808,5-11.322,4.133-11.961-1.342-.432-3.877,2.824-9.569,13.4-12.2,16.221-4.02,29.475,3.637,31.341,17.32,2.231,16.183-12,30.375-27.262,36.621-6.065,2.482-14.839.7-13.878-6.456A2.094,2.094,0,0,0,363.374,434.755Z" transform="translate(-359.774 -386.538)"/><path class="a" d="M528.646,478.783c.979-2.425,4.1-10,5.983-14.274a.535.535,0,0,1,.493-.319h5.16a.539.539,0,0,1,.5.741c-1.873,4.588-4.6,11.467-5.007,12.464-1.1,2.584-1.245,4.69.335,4.69,1.293,0,4.69-2.057,6.65-6.458,1.431-3.371,3.489-8.081,4.835-11.117a.539.539,0,0,1,.493-.319h5.163a.539.539,0,0,1,.5.741c-1.953,4.789-5.462,13.665-5.917,14.665-.478,1.2-.575,2.487.718,2.487,1.255,0,2.96-1.94,4.856-6.085a.534.534,0,0,1,.618-.3,5.477,5.477,0,0,1,1.753.9.535.535,0,0,1,.161.608c-1.976,5.16-5.234,10.432-9.684,10.432a5.142,5.142,0,0,1-5.048-3.115.535.535,0,0,0-.874-.171c-1.983,1.955-4.309,3.289-6.517,3.289C528.406,487.636,526.875,483.33,528.646,478.783Z" transform="translate(-484.965 -444.344)"/><g transform="translate(63.062 11.752)"><path class="a" d="M621.974,463.174H626.8a.752.752,0,0,1,.7,1.038h0a5.6,5.6,0,0,1,4.472-1.884c3.578.281,6.075,6.169,2.732,14.174-3.391,7.958-7.348,9.8-11.02,9.8a5.116,5.116,0,0,1-3.509-1.268.747.747,0,0,0-1.188.284l-6.131,15.161a.754.754,0,0,1-.7.47h-4.876a.753.753,0,0,1-.7-1.035l14.7-36.266A.756.756,0,0,1,621.974,463.174Zm1.942,18.506c1.648,0,3.721-2.024,5.651-6.734,1.978-4.756,1.319-7.159-.095-7.488-1.492-.317-4.337,1.5-6.134,7.314C622.294,478.154,622.419,481.68,623.917,481.68Z" transform="translate(-606.523 -454.697)"/><path class="a" d="M718.7,463.422h-.889a.751.751,0,0,0-.718.529c-1.963,6.428-5.344,14.994-7.046,17.8a.754.754,0,0,1-.711.355,5.011,5.011,0,0,1-2.152-.68.75.75,0,0,1-.192-1.061c4.531-6.492,7.6-17.4,7.969-22.227a.75.75,0,0,1,.68-.693,13.332,13.332,0,0,1,2.213-.013.747.747,0,0,1,.675.856c-.015.11-.036.222-.056.34a.751.751,0,0,0,.739.882h6.941a.75.75,0,0,1,.6,1.2c-4.759,6.116-6.785,14.69-3.565,15.043,2.116.215,3.678-2.3,4.723-4.429a.751.751,0,0,1,.943-.368,7.123,7.123,0,0,1,1.26.619.758.758,0,0,1,.289.94c-1.625,3.721-4.718,9.5-9.566,9.5-6.262,0-6.274-9.178-1.482-17.476A.752.752,0,0,0,718.7,463.422Z" transform="translate(-681.211 -451.037)"/><path class="a" d="M783.322,455.5c.91-2.408,4.143-9.819,6.019-14.056a.754.754,0,0,1,.688-.447h4.608a.75.75,0,0,1,.7,1.033c-1.942,4.777-5.262,13.17-5.7,14.131-.47,1.178-.565,2.448.705,2.448,1.217,0,2.822-1.853,4.69-5.807a.748.748,0,0,1,.93-.394,6.538,6.538,0,0,1,1.306.685.752.752,0,0,1,.276.889c-1.947,5.022-5.088,10.09-9.461,10.09C783.606,464.07,781.581,460.022,783.322,455.5Zm10.455-22.981c2.259,0,4.1,1.413,4.1,3.2,0,1.743-1.838,3.2-4.1,3.2-2.308,0-4.143-1.459-4.143-3.2C789.634,433.933,791.469,432.52,793.777,432.52Z" transform="translate(-737.675 -432.52)"/></g><path class="a" d="M583.7,426.845l-1.048,4.189,13.911-3.841,1.746-5.063Z" transform="translate(-525.689 -413.034)"/></g></g></svg>