<svg xmlns="http://www.w3.org/2000/svg" width="177.858" height="58.999" viewBox="0 0 177.858 58.999"><defs><style>.a{fill:#019d95;}.b{fill:#532c7c;}</style></defs><g transform="translate(-157.93 -386.538)"><g transform="translate(157.93 393.891)"><g transform="translate(0 0)"><rect class="a" width="11.101" height="11.101" transform="translate(0 0.109)"/><rect class="a" width="11.101" height="11.101" transform="translate(14.644 0.109)"/><path class="b" d="M270.59,414.929v10.994h11.1V414.929Z" transform="translate(-241.301 -414.82)"/><rect class="a" width="11.101" height="11.101" transform="translate(0 29.065)"/><path class="b" d="M157.93,470.97v11.1h14.644v14.47h11.1V470.97Z" transform="translate(-157.93 -456.373)"/><rect class="a" width="11.101" height="11.101" transform="translate(29.289 29.065)"/><rect class="a" width="11.101" height="11.101" transform="translate(29.289 14.597)"/></g></g><g transform="translate(210.404 386.538)"><path class="a" d="M363.436,435.585a.549.549,0,0,1,.569-.58c16.378.51,37.683-15.554,35.278-31.761-.658-4.414-3.809-8.015-8.054-10.186a.543.543,0,0,0-.72.221c-3.335,5.948-9.531,19.685-11.818,29.195a7.41,7.41,0,0,1-9.611,5.306c-.114-.042-.224-.083-.322-.125a.544.544,0,0,1-.309-.65c2.3-8.137,10.4-26.564,15.679-35.239a.547.547,0,0,0-.426-.829,19.688,19.688,0,0,0-7.2.725c-6.562,1.96-8.517,8.057-4.825,8.868a.549.549,0,0,1,.3.871c-3.874,5.082-11.517,4.2-12.167-1.365-.439-3.944,2.873-9.733,13.628-12.411,16.5-4.089,29.983,3.7,31.88,17.618,2.27,16.461-12.2,30.9-27.731,37.252-6.169,2.524-15.094.71-14.117-6.567A2.136,2.136,0,0,0,363.436,435.585Z" transform="translate(-359.774 -386.538)"/><path class="a" d="M528.658,479.034c1-2.467,4.17-10.168,6.086-14.52a.544.544,0,0,1,.5-.325h5.249a.548.548,0,0,1,.51.754c-1.906,4.667-4.68,11.665-5.093,12.679-1.12,2.628-1.266,4.77.341,4.77,1.315,0,4.771-2.093,6.765-6.57,1.456-3.429,3.549-8.22,4.919-11.309a.548.548,0,0,1,.5-.325h5.251a.548.548,0,0,1,.51.754c-1.986,4.872-5.556,13.9-6.018,14.917-.486,1.217-.585,2.53.731,2.53,1.276,0,3.01-1.973,4.939-6.19a.543.543,0,0,1,.629-.309,5.572,5.572,0,0,1,1.783.915.544.544,0,0,1,.164.619c-2.01,5.249-5.324,10.612-9.85,10.612a5.23,5.23,0,0,1-5.134-3.169.544.544,0,0,0-.889-.174c-2.017,1.989-4.383,3.346-6.629,3.346C528.414,488.04,526.857,483.659,528.658,479.034Z" transform="translate(-484.225 -444.003)"/><g transform="translate(64.148 11.954)"><path class="a" d="M622.24,463.189h4.908a.765.765,0,0,1,.707,1.055h0a5.7,5.7,0,0,1,4.549-1.916c3.64.286,6.18,6.276,2.779,14.418-3.45,8.1-7.474,9.965-11.21,9.965a5.2,5.2,0,0,1-3.569-1.289.76.76,0,0,0-1.209.289l-6.237,15.422a.766.766,0,0,1-.71.478h-4.96a.766.766,0,0,1-.71-1.053l14.948-36.89A.769.769,0,0,1,622.24,463.189Zm1.976,18.825c1.677,0,3.785-2.059,5.748-6.85,2.012-4.838,1.341-7.282-.1-7.617-1.518-.322-4.412,1.526-6.239,7.44C622.565,478.426,622.693,482.014,624.216,482.014Z" transform="translate(-606.523 -454.566)"/><path class="a" d="M718.9,463.526H718a.765.765,0,0,0-.731.538c-2,6.538-5.436,15.253-7.167,18.107a.767.767,0,0,1-.723.361,5.1,5.1,0,0,1-2.189-.692.763.763,0,0,1-.2-1.079c4.609-6.6,7.729-17.7,8.106-22.61a.763.763,0,0,1,.692-.7,13.562,13.562,0,0,1,2.251-.013.76.76,0,0,1,.686.871c-.016.112-.036.226-.057.346a.764.764,0,0,0,.751.9h7.061a.763.763,0,0,1,.611,1.224c-4.841,6.221-6.9,14.943-3.627,15.3,2.153.218,3.741-2.342,4.8-4.505a.764.764,0,0,1,.959-.374,7.248,7.248,0,0,1,1.282.629.771.771,0,0,1,.294.957c-1.653,3.785-4.8,9.663-9.731,9.663-6.369,0-6.382-9.336-1.508-17.777A.765.765,0,0,0,718.9,463.526Z" transform="translate(-680.77 -450.928)"/><path class="a" d="M783.333,455.9c.925-2.449,4.214-9.988,6.122-14.3a.767.767,0,0,1,.7-.455h4.687a.763.763,0,0,1,.71,1.05c-1.976,4.859-5.353,13.4-5.8,14.374-.478,1.2-.575,2.491.718,2.491,1.237,0,2.87-1.885,4.771-5.907a.761.761,0,0,1,.946-.4,6.649,6.649,0,0,1,1.328.7.765.765,0,0,1,.281.9c-1.981,5.108-5.176,10.264-9.624,10.264C783.621,464.614,781.562,460.5,783.333,455.9Zm10.635-23.377c2.3,0,4.167,1.438,4.167,3.257,0,1.773-1.869,3.257-4.167,3.257-2.348,0-4.214-1.484-4.214-3.257C789.754,433.958,791.62,432.52,793.968,432.52Z" transform="translate(-736.9 -432.52)"/></g><path class="b" d="M583.716,426.927l-1.066,4.261,14.15-3.907,1.776-5.15Z" transform="translate(-524.708 -412.877)"/></g></g></svg>